<svg width="441" height="452" viewBox="0 0 441 452" fill="none" xmlns="http://www.w3.org/2000/svg">
<path d="M394 55H45.5C20.6472 55 0.5 75.1472 0.5 100V164.5H439V100C439 75.1472 418.853 55 394 55Z" fill="#B8CED3" stroke="#B8CED3"/>
<path d="M394.75 451.5H45.75C20.8972 451.5 0.75 431.353 0.75 406.5V199.5H439.75V406.5C439.75 431.353 419.603 451.5 394.75 451.5Z" fill="#B8CED3" stroke="#B8CED3"/>
<path d="M339.281 109.921H334C322.954 109.921 314 100.967 314 89.9209V20.5C314 9.45431 322.954 0.5 334 0.5H339.281C350.327 0.5 359.281 9.45431 359.281 20.5V89.9209C359.281 100.967 350.327 109.921 339.281 109.921Z" fill="#B8CED3" stroke="#B8CED3"/>
<path d="M106.281 109.921H101C89.9543 109.921 81 100.967 81 89.9209V20.5C81 9.45431 89.9543 0.5 101 0.5H106.281C117.327 0.5 126.281 9.45431 126.281 20.5V89.9209C126.281 100.967 117.327 109.921 106.281 109.921Z" fill="#B8CED3" stroke="#B8CED3"/>
<path d="M227 279.5V242.5C227 239.186 229.686 236.5 233 236.5H272C275.314 236.5 278 239.186 278 242.5V279.5C278 282.814 275.314 285.5 272 285.5H233C229.686 285.5 227 282.814 227 279.5Z" fill="#618A86" stroke="#B8CED3"/>
<path d="M227 343.5V306.5C227 303.186 229.686 300.5 233 300.5H272C275.314 300.5 278 303.186 278 306.5V343.5C278 346.814 275.314 349.5 272 349.5H233C229.686 349.5 227 346.814 227 343.5Z" fill="#618A86" stroke="#B8CED3"/>
<path d="M227 407.5V370.5C227 367.186 229.686 364.5 233 364.5H272C275.314 364.5 278 367.186 278 370.5V407.5C278 410.814 275.314 413.5 272 413.5H233C229.686 413.5 227 410.814 227 407.5Z" fill="#618A86" stroke="#B8CED3"/>
<path d="M95 343.5V306.5C95 303.186 97.6863 300.5 101 300.5H140C143.314 300.5 146 303.186 146 306.5V343.5C146 346.814 143.314 349.5 140 349.5H101C97.6863 349.5 95 346.814 95 343.5Z" fill="#618A86" stroke="#B8CED3"/>
<path d="M95 407.5V370.5C95 367.186 97.6863 364.5 101 364.5H140C143.314 364.5 146 367.186 146 370.5V407.5C146 410.814 143.314 413.5 140 413.5H101C97.6863 413.5 95 410.814 95 407.5Z" fill="#618A86" stroke="#B8CED3"/>
<path d="M293 279.5V242.5C293 239.186 295.686 236.5 299 236.5H338C341.314 236.5 344 239.186 344 242.5V279.5C344 282.814 341.314 285.5 338 285.5H299C295.686 285.5 293 282.814 293 279.5Z" fill="#618A86" stroke="#B8CED3"/>
<path d="M293 343.5V306.5C293 303.186 295.686 300.5 299 300.5H338C341.314 300.5 344 303.186 344 306.5V343.5C344 346.814 341.314 349.5 338 349.5H299C295.686 349.5 293 346.814 293 343.5Z" fill="#618A86" stroke="#B8CED3"/>
<path d="M161 343.5V306.5C161 303.186 163.686 300.5 167 300.5H206C209.314 300.5 212 303.186 212 306.5V343.5C212 346.814 209.314 349.5 206 349.5H167C163.686 349.5 161 346.814 161 343.5Z" fill="#618A86" stroke="#B8CED3"/>
<path d="M161 407.5V370.5C161 367.186 163.686 364.5 167 364.5H206C209.314 364.5 212 367.186 212 370.5V407.5C212 410.814 209.314 413.5 206 413.5H167C163.686 413.5 161 410.814 161 407.5Z" fill="#618A86" stroke="#B8CED3"/>
</svg>
